<svg height='200' width='200'  fill="blue" xmlns="http://www.w3.org/2000/svg" xmlns:xlink="http://www.w3.org/1999/xlink" version="1.1" x="0px" y="0px" viewBox="0 0 100 100" enable-background="new 0 0 100 100" xml:space="preserve"><g><g><path d="M51.408,53.415c-2.163-8.002-9.314-13.969-17.622-14.479c-8.464-0.52-16.239,4.567-19.387,12.324    c-4.245-1.029-8.489-2.058-12.733-3.087c-1.685-0.408-2.385,2.19-0.697,2.6c0.108,0.027,0.214,0.052,0.322,0.079    c8.604,2.086,17.209,4.172,25.814,6.258c7.551,1.832,15.103,3.663,22.654,5.494c0.422,0.102,0.781,0.017,1.058-0.177    c0.477-0.112,0.914-0.442,0.985-0.947C52.183,58.786,52.122,56.053,51.408,53.415z"></path><path d="M14.826,55.388c-0.177,0.998-0.27,2.026-0.27,3.075c0,9.652,7.825,17.478,17.477,17.478    c7.861,0,14.509-5.19,16.707-12.329c-7.12-1.727-14.24-3.454-21.36-5.179C23.195,57.418,19.01,56.402,14.826,55.388z     M23.775,68.058c-0.744,0-1.346-1.169-1.346-2.61c0-1.443,0.603-2.611,1.346-2.611c0.743,0,1.345,1.168,1.345,2.611    C25.12,66.889,24.518,68.058,23.775,68.058z M36.982,62.836c0.743,0,1.345,1.168,1.345,2.611c0,1.441-0.602,2.61-1.345,2.61    c-0.744,0-1.346-1.169-1.346-2.61C35.637,64.004,36.239,62.836,36.982,62.836z M34.669,71.036    c0.679-0.448,1.308,0.639,0.634,1.083c-2.742,1.807-6.542,2.193-9.155-0.098c-0.61-0.536,0.281-1.42,0.888-0.888    C29.11,72.952,32.376,72.545,34.669,71.036z"></path></g><g><path d="M92.456,21.598c-11.308-3.392-14.047,6.864-14.401,8.459c-2.433-1.237-5.187-1.938-8.102-1.938    c-8.805,0-16.125,6.358-17.618,14.733c6.647-0.276,21.772-1.657,26.509-8.449l0.602-0.861l0.347,0.991    c0.034,0.092,2.855,7.933,7.902,9.127c-0.639-4.854-3.224-9.093-6.944-11.913l0.132,0.072c7.793-9.033,9.482,11.244,9.482,11.244    l10.015-9.188C100.379,33.874,99.632,23.751,92.456,21.598z"></path><path d="M81.737,40.427c-1.284-1.75-2.156-3.58-2.604-4.638c-2.944,3.481-8.727,5.914-17.213,7.236    c-3.783,0.589-7.344,0.823-9.743,0.915c-0.079,0.681-0.12,1.374-0.12,2.076c0,9.883,8.012,17.896,17.896,17.896    s17.896-8.012,17.896-17.896c0-0.415-0.016-0.826-0.042-1.233C85.633,44.395,83.573,42.927,81.737,40.427z M63.41,52.462    c-0.743,0-1.344-1.17-1.344-2.612c0-1.442,0.601-2.611,1.344-2.611c0.744,0,1.347,1.169,1.347,2.611    C64.757,51.292,64.154,52.462,63.41,52.462z M75.259,56.056c-1.767,1.498-3.997,2.259-6.281,1.585    c-1.082-0.319-2.146-0.838-3.002-1.585c-0.611-0.533,0.28-1.417,0.888-0.888c2.198,1.917,5.314,1.861,7.508,0    C74.982,54.647,75.876,55.531,75.259,56.056z M76.62,52.462c-0.744,0-1.347-1.169-1.347-2.612c0-1.442,0.603-2.611,1.347-2.611    c0.743,0,1.344,1.169,1.344,2.611C77.964,51.293,77.363,52.462,76.62,52.462z"></path></g></g></svg>